<mxfile host="app.diagrams.net" modified="2024-07-10T09:09:59.222Z" agent="Mozilla/5.0 (Macintosh; Intel Mac OS X 10_15_7) AppleWebKit/537.36 (KHTML, like Gecko) Chrome/126.0.0.0 Safari/537.36" etag="uokc0WxMTHvPyN19_xzn" version="24.6.4" type="device">
  <diagram name="第 1 页" id="MeGFeEwDgNCS1McFcLDU">
    <mxGraphModel dx="4984" dy="2064" grid="1" gridSize="10" guides="1" tooltips="1" connect="1" arrows="1" fold="1" page="1" pageScale="1" pageWidth="3300" pageHeight="4681" math="0" shadow="0">
      <root>
        <mxCell id="0" />
        <mxCell id="1" parent="0" />
        <mxCell id="XYzWHzTVNK9J-gLb8ux9-20" value="&lt;div style=&quot;color: rgb(204, 204, 204); background-color: rgb(31, 31, 31); font-family: Menlo, Monaco, &amp;quot;Courier New&amp;quot;, monospace; font-size: 16px; line-height: 24px; white-space: pre;&quot;&gt;&lt;br&gt;&lt;/div&gt;" style="rounded=0;whiteSpace=wrap;html=1;" vertex="1" parent="1">
          <mxGeometry x="300" y="565" width="550" height="70" as="geometry" />
        </mxCell>
        <mxCell id="XYzWHzTVNK9J-gLb8ux9-49" style="edgeStyle=orthogonalEdgeStyle;rounded=0;orthogonalLoop=1;jettySize=auto;html=1;entryX=0;entryY=0.5;entryDx=0;entryDy=0;strokeWidth=16;strokeColor=#FF6392;" edge="1" parent="1" source="XYzWHzTVNK9J-gLb8ux9-3" target="XYzWHzTVNK9J-gLb8ux9-40">
          <mxGeometry relative="1" as="geometry" />
        </mxCell>
        <mxCell id="XYzWHzTVNK9J-gLb8ux9-3" value="&lt;div style=&quot;font-family: Menlo, Monaco, &amp;quot;Courier New&amp;quot;, monospace; font-size: 16px; line-height: 100%; white-space: pre;&quot;&gt;&lt;div style=&quot;line-height: 100%; font-size: 19px;&quot;&gt;&lt;div style=&quot;color: rgb(204, 204, 204); line-height: 100%;&quot;&gt;&lt;div style=&quot;line-height: 260%;&quot;&gt;&lt;span style=&quot;color: #569cd6;&quot;&gt;function&lt;/span&gt;&lt;span style=&quot;color: #d4d4d4;&quot;&gt; &lt;/span&gt;&lt;span style=&quot;color: #dcdcaa;&quot;&gt;applyMiddleware&lt;/span&gt;&lt;span style=&quot;color: #d4d4d4;&quot;&gt;(...&lt;/span&gt;&lt;span style=&quot;color: #9cdcfe;&quot;&gt;middlewares&lt;/span&gt;&lt;span style=&quot;color: #d4d4d4;&quot;&gt;) {&lt;/span&gt;&lt;/div&gt;&lt;br&gt;&lt;div style=&quot;line-height: 260%;&quot;&gt;&lt;span style=&quot;color: #d4d4d4;&quot;&gt;    &lt;/span&gt;&lt;span style=&quot;color: #569cd6;&quot;&gt;const&lt;/span&gt;&lt;span style=&quot;color: #d4d4d4;&quot;&gt; &lt;/span&gt;&lt;span style=&quot;color: #4fc1ff;&quot;&gt;middlewareAPI&lt;/span&gt;&lt;span style=&quot;color: #d4d4d4;&quot;&gt; = {&lt;/span&gt;&lt;/div&gt;&lt;div style=&quot;line-height: 260%;&quot;&gt;&lt;span style=&quot;color: #d4d4d4;&quot;&gt;      &lt;/span&gt;&lt;span style=&quot;color: #9cdcfe;&quot;&gt;getState:&lt;/span&gt;&lt;span style=&quot;color: #d4d4d4;&quot;&gt; &lt;/span&gt;&lt;span style=&quot;color: #9cdcfe;&quot;&gt;store&lt;/span&gt;&lt;span style=&quot;color: #d4d4d4;&quot;&gt;.&lt;/span&gt;&lt;span style=&quot;color: #9cdcfe;&quot;&gt;getState&lt;/span&gt;&lt;span style=&quot;color: #d4d4d4;&quot;&gt;,&lt;/span&gt;&lt;/div&gt;&lt;div style=&quot;line-height: 260%;&quot;&gt;&lt;span style=&quot;color: #d4d4d4;&quot;&gt;      &lt;/span&gt;&lt;span style=&quot;color: #dcdcaa;&quot;&gt;dispatch&lt;/span&gt;&lt;span style=&quot;color: #9cdcfe;&quot;&gt;:&lt;/span&gt;&lt;span style=&quot;color: #d4d4d4;&quot;&gt; (&lt;/span&gt;&lt;span style=&quot;color: #9cdcfe;&quot;&gt;action&lt;/span&gt;&lt;span style=&quot;color: #d4d4d4;&quot;&gt;, ...&lt;/span&gt;&lt;span style=&quot;color: #9cdcfe;&quot;&gt;args&lt;/span&gt;&lt;span style=&quot;color: #d4d4d4;&quot;&gt;) &lt;/span&gt;&lt;span style=&quot;color: #569cd6;&quot;&gt;=&amp;gt;&lt;/span&gt;&lt;span style=&quot;color: #d4d4d4;&quot;&gt; &lt;/span&gt;&lt;span style=&quot;color: #9cdcfe;&quot;&gt;store&lt;/span&gt;&lt;span style=&quot;color: #d4d4d4;&quot;&gt;.&lt;/span&gt;&lt;span style=&quot;color: #dcdcaa;&quot;&gt;dispatch&lt;/span&gt;&lt;span style=&quot;color: #d4d4d4;&quot;&gt;(&lt;/span&gt;&lt;span style=&quot;color: #9cdcfe;&quot;&gt;action&lt;/span&gt;&lt;span style=&quot;color: #d4d4d4;&quot;&gt;, ...&lt;/span&gt;&lt;span style=&quot;color: #9cdcfe;&quot;&gt;args&lt;/span&gt;&lt;span style=&quot;color: #d4d4d4;&quot;&gt;),&lt;/span&gt;&lt;/div&gt;&lt;div style=&quot;line-height: 260%;&quot;&gt;&lt;span style=&quot;color: #d4d4d4;&quot;&gt;    };&lt;/span&gt;&lt;/div&gt;&lt;br&gt;&lt;div style=&quot;line-height: 260%;&quot;&gt;&lt;span style=&quot;color: #d4d4d4;&quot;&gt;    &lt;/span&gt;&lt;span style=&quot;color: #569cd6;&quot;&gt;const&lt;/span&gt;&lt;span style=&quot;color: #d4d4d4;&quot;&gt; &lt;/span&gt;&lt;span style=&quot;color: #4fc1ff;&quot;&gt;chain&lt;/span&gt;&lt;span style=&quot;color: #d4d4d4;&quot;&gt; = &lt;/span&gt;&lt;span style=&quot;color: #9cdcfe;&quot;&gt;middlewares&lt;/span&gt;&lt;span style=&quot;color: #d4d4d4;&quot;&gt;.&lt;/span&gt;&lt;span style=&quot;color: #dcdcaa;&quot;&gt;map&lt;/span&gt;&lt;span style=&quot;color: #d4d4d4;&quot;&gt;((&lt;/span&gt;&lt;span style=&quot;color: #9cdcfe;&quot;&gt;middleware&lt;/span&gt;&lt;span style=&quot;color: #d4d4d4;&quot;&gt;) &lt;/span&gt;&lt;span style=&quot;color: #569cd6;&quot;&gt;=&amp;gt;&lt;/span&gt;&lt;span style=&quot;color: #d4d4d4;&quot;&gt; &lt;/span&gt;&lt;span style=&quot;color: #dcdcaa;&quot;&gt;middleware&lt;/span&gt;&lt;span style=&quot;color: #d4d4d4;&quot;&gt;(&lt;/span&gt;&lt;span style=&quot;color: #9cdcfe;&quot;&gt;middlewareAPI&lt;/span&gt;&lt;span style=&quot;color: #d4d4d4;&quot;&gt;));&lt;/span&gt;&lt;/div&gt;&lt;div style=&quot;line-height: 260%;&quot;&gt;&lt;span style=&quot;color: rgb(212, 212, 212);&quot;&gt;    &lt;/span&gt;&lt;span style=&quot;color: rgb(156, 220, 254);&quot;&gt;dispatch&lt;/span&gt;&lt;span style=&quot;color: rgb(212, 212, 212);&quot;&gt; = &lt;/span&gt;&lt;span style=&quot;color: rgb(220, 220, 170);&quot;&gt;compose&lt;/span&gt;&lt;span style=&quot;color: rgb(212, 212, 212);&quot;&gt;(...&lt;/span&gt;&lt;span style=&quot;color: rgb(156, 220, 254);&quot;&gt;chain&lt;/span&gt;&lt;span style=&quot;color: rgb(212, 212, 212);&quot;&gt;)(&lt;/span&gt;&lt;span style=&quot;color: rgb(156, 220, 254);&quot;&gt;store&lt;/span&gt;&lt;span style=&quot;color: rgb(212, 212, 212);&quot;&gt;.&lt;/span&gt;&lt;span style=&quot;color: rgb(156, 220, 254);&quot;&gt;dispatch&lt;/span&gt;&lt;span style=&quot;color: rgb(212, 212, 212);&quot;&gt;);&lt;/span&gt;&lt;/div&gt;&lt;br&gt;&lt;div style=&quot;line-height: 100%;&quot;&gt;&lt;span style=&quot;color: #d4d4d4;&quot;&gt;    &lt;/span&gt;&lt;span style=&quot;color: #c586c0;&quot;&gt;return&lt;/span&gt;&lt;span style=&quot;color: #d4d4d4;&quot;&gt; {&lt;/span&gt;&lt;/div&gt;&lt;div style=&quot;line-height: 260%;&quot;&gt;&lt;span style=&quot;color: #d4d4d4;&quot;&gt;      ...&lt;/span&gt;&lt;span style=&quot;color: #9cdcfe;&quot;&gt;store&lt;/span&gt;&lt;span style=&quot;color: #d4d4d4;&quot;&gt;,&lt;/span&gt;&lt;/div&gt;&lt;div style=&quot;line-height: 260%;&quot;&gt;&lt;span style=&quot;color: #d4d4d4;&quot;&gt;      &lt;/span&gt;&lt;span style=&quot;color: #9cdcfe;&quot;&gt;dispatch&lt;/span&gt;&lt;span style=&quot;color: #d4d4d4;&quot;&gt;,&lt;/span&gt;&lt;/div&gt;&lt;div style=&quot;line-height: 260%;&quot;&gt;&lt;span style=&quot;color: #d4d4d4;&quot;&gt;    };&lt;/span&gt;&lt;/div&gt;&lt;div style=&quot;line-height: 260%;&quot;&gt;&lt;span style=&quot;color: #d4d4d4;&quot;&gt;}&lt;/span&gt;&lt;/div&gt;&lt;/div&gt;&lt;/div&gt;&lt;/div&gt;" style="rounded=1;whiteSpace=wrap;html=1;align=left;fillColor=#CC0000;gradientColor=default;gradientDirection=north;spacingLeft=18;labelBackgroundColor=none;spacingTop=77;" vertex="1" parent="1">
          <mxGeometry x="1070" y="580" width="920" height="830" as="geometry" />
        </mxCell>
        <mxCell id="XYzWHzTVNK9J-gLb8ux9-80" style="edgeStyle=orthogonalEdgeStyle;rounded=0;orthogonalLoop=1;jettySize=auto;html=1;exitX=1;exitY=0.5;exitDx=0;exitDy=0;strokeColor=#FF6392;fontColor=#5AA9E6;fillColor=#FFE45E;strokeWidth=16;" edge="1" parent="1" source="XYzWHzTVNK9J-gLb8ux9-5" target="XYzWHzTVNK9J-gLb8ux9-3">
          <mxGeometry relative="1" as="geometry" />
        </mxCell>
        <mxCell id="XYzWHzTVNK9J-gLb8ux9-5" value="&lt;div style=&quot;font-family: Menlo, Monaco, &amp;quot;Courier New&amp;quot;, monospace; font-weight: normal; font-size: 16px; line-height: 24px; white-space: pre;&quot;&gt;&lt;div&gt;&lt;br&gt;&lt;/div&gt;&lt;ul&gt;&lt;li&gt;applyMiddileware()里无中间件&lt;/li&gt;&lt;/ul&gt;&lt;ul&gt;&lt;li&gt;一个中间件&lt;/li&gt;&lt;/ul&gt;&lt;/div&gt;&lt;blockquote style=&quot;margin: 0 0 0 40px; border: none; padding: 0px;&quot;&gt;&lt;div style=&quot;font-family: Menlo, Monaco, &amp;quot;Courier New&amp;quot;, monospace; font-weight: normal; font-size: 16px; line-height: 24px; white-space: pre;&quot;&gt;&lt;div&gt;&lt;font color=&quot;#00cc00&quot;&gt;&lt;span style=&quot;&quot;&gt;const&lt;/span&gt;&lt;span style=&quot;&quot;&gt; &lt;/span&gt;&lt;span style=&quot;&quot;&gt;thunk1&lt;/span&gt;&lt;span style=&quot;&quot;&gt; = &lt;/span&gt;&lt;span style=&quot;&quot;&gt;function&lt;/span&gt;&lt;span style=&quot;&quot;&gt; ({ &lt;/span&gt;&lt;span style=&quot;&quot;&gt;getState&lt;/span&gt;&lt;span style=&quot;&quot;&gt;, &lt;/span&gt;&lt;span style=&quot;&quot;&gt;dispatch&lt;/span&gt;&lt;span style=&quot;&quot;&gt; }) {&lt;/span&gt;&lt;/font&gt;&lt;/div&gt;&lt;/div&gt;&lt;div style=&quot;font-family: Menlo, Monaco, &amp;quot;Courier New&amp;quot;, monospace; font-weight: normal; font-size: 16px; line-height: 24px; white-space: pre;&quot;&gt;&lt;div style=&quot;line-height: 24px;&quot;&gt;&lt;div&gt;&lt;font color=&quot;#00cc00&quot;&gt;&lt;span style=&quot;&quot;&gt;  &lt;/span&gt;&lt;span style=&quot;&quot;&gt;return&lt;/span&gt;&lt;span style=&quot;&quot;&gt; &lt;/span&gt;&lt;span style=&quot;&quot;&gt;function&lt;/span&gt;&lt;span style=&quot;&quot;&gt; (&lt;/span&gt;&lt;span style=&quot;&quot;&gt;next&lt;/span&gt;&lt;span style=&quot;&quot;&gt;) {&lt;/span&gt;&lt;/font&gt;&lt;/div&gt;&lt;/div&gt;&lt;/div&gt;&lt;div style=&quot;font-family: Menlo, Monaco, &amp;quot;Courier New&amp;quot;, monospace; font-weight: normal; font-size: 16px; line-height: 24px; white-space: pre;&quot;&gt;&lt;div style=&quot;line-height: 24px;&quot;&gt;&lt;div&gt;&lt;font color=&quot;#00cc00&quot;&gt;&lt;span style=&quot;&quot;&gt;    &lt;/span&gt;&lt;span style=&quot;&quot;&gt;return&lt;/span&gt;&lt;span style=&quot;&quot;&gt; &lt;/span&gt;&lt;span style=&quot;&quot;&gt;function&lt;/span&gt;&lt;span style=&quot;&quot;&gt; (&lt;/span&gt;&lt;span style=&quot;&quot;&gt;action&lt;/span&gt;&lt;span style=&quot;&quot;&gt;) {&lt;/span&gt;&lt;/font&gt;&lt;/div&gt;&lt;/div&gt;&lt;/div&gt;&lt;div style=&quot;font-family: Menlo, Monaco, &amp;quot;Courier New&amp;quot;, monospace; font-weight: normal; font-size: 16px; line-height: 24px; white-space: pre;&quot;&gt;&lt;div style=&quot;line-height: 24px;&quot;&gt;&lt;div&gt;&lt;font color=&quot;#00cc00&quot;&gt;&lt;span style=&quot;&quot;&gt;      &lt;/span&gt;&lt;span style=&quot;&quot;&gt;return&lt;/span&gt;&lt;span style=&quot;&quot;&gt; &lt;/span&gt;&lt;span style=&quot;&quot;&gt;next&lt;/span&gt;&lt;span style=&quot;&quot;&gt;(&lt;/span&gt;&lt;span style=&quot;&quot;&gt;action&lt;/span&gt;&lt;span style=&quot;&quot;&gt;);&lt;/span&gt;&lt;/font&gt;&lt;/div&gt;&lt;/div&gt;&lt;/div&gt;&lt;div style=&quot;font-family: Menlo, Monaco, &amp;quot;Courier New&amp;quot;, monospace; font-weight: normal; font-size: 16px; line-height: 24px; white-space: pre;&quot;&gt;&lt;div style=&quot;line-height: 24px;&quot;&gt;&lt;div&gt;&lt;span style=&quot;&quot;&gt;&lt;font color=&quot;#00cc00&quot;&gt;    };&lt;/font&gt;&lt;/span&gt;&lt;/div&gt;&lt;/div&gt;&lt;/div&gt;&lt;div style=&quot;font-family: Menlo, Monaco, &amp;quot;Courier New&amp;quot;, monospace; font-weight: normal; font-size: 16px; line-height: 24px; white-space: pre;&quot;&gt;&lt;div style=&quot;line-height: 24px;&quot;&gt;&lt;div&gt;&lt;span style=&quot;&quot;&gt;&lt;font color=&quot;#00cc00&quot;&gt;  };&lt;/font&gt;&lt;/span&gt;&lt;/div&gt;&lt;/div&gt;&lt;/div&gt;&lt;div style=&quot;font-family: Menlo, Monaco, &amp;quot;Courier New&amp;quot;, monospace; font-weight: normal; font-size: 16px; line-height: 24px; white-space: pre;&quot;&gt;&lt;div style=&quot;line-height: 24px;&quot;&gt;&lt;div&gt;&lt;span style=&quot;&quot;&gt;&lt;font color=&quot;#00cc00&quot;&gt;};&lt;/font&gt;&lt;/span&gt;&lt;/div&gt;&lt;div&gt;&lt;span style=&quot;&quot;&gt;&lt;font color=&quot;#00cc00&quot;&gt;&lt;br&gt;&lt;/font&gt;&lt;/span&gt;&lt;/div&gt;&lt;div&gt;&lt;font color=&quot;#00cc00&quot;&gt;applyMiddileware(thunk1)&lt;/font&gt;&lt;span style=&quot;&quot;&gt;&lt;br&gt;&lt;/span&gt;&lt;/div&gt;&lt;div&gt;&lt;span style=&quot;&quot;&gt;&lt;br&gt;&lt;/span&gt;&lt;/div&gt;&lt;div&gt;&lt;span style=&quot;&quot;&gt;&lt;br&gt;&lt;/span&gt;&lt;/div&gt;&lt;/div&gt;&lt;/div&gt;&lt;/blockquote&gt;&lt;div style=&quot;font-family: Menlo, Monaco, &amp;quot;Courier New&amp;quot;, monospace; font-weight: normal; font-size: 16px; line-height: 24px; white-space: pre;&quot;&gt;&lt;ul&gt;&lt;li&gt;两个中间件以上&lt;/li&gt;&lt;/ul&gt;&lt;/div&gt;&lt;blockquote style=&quot;margin: 0 0 0 40px; border: none; padding: 0px;&quot;&gt;&lt;div style=&quot;font-family: Menlo, Monaco, &amp;quot;Courier New&amp;quot;, monospace; font-weight: normal; font-size: 16px; line-height: 24px; white-space: pre;&quot;&gt;&lt;div&gt;&lt;div style=&quot;line-height: 24px;&quot;&gt;&lt;div&gt;&lt;div style=&quot;line-height: 24px;&quot;&gt;&lt;br&gt;&lt;/div&gt;&lt;div style=&quot;line-height: 24px;&quot;&gt;&lt;font color=&quot;#00cc00&quot;&gt;&lt;span style=&quot;&quot;&gt;const&lt;/span&gt;&lt;span style=&quot;&quot;&gt; &lt;/span&gt;&lt;span style=&quot;&quot;&gt;thunk1&lt;/span&gt;&lt;span style=&quot;&quot;&gt; = &lt;/span&gt;&lt;span style=&quot;&quot;&gt;function&lt;/span&gt;&lt;span style=&quot;&quot;&gt; ({ &lt;/span&gt;&lt;span style=&quot;&quot;&gt;getState&lt;/span&gt;&lt;span style=&quot;&quot;&gt;, &lt;/span&gt;&lt;span style=&quot;&quot;&gt;dispatch&lt;/span&gt;&lt;span style=&quot;&quot;&gt; }) {&lt;/span&gt;&lt;/font&gt;&lt;/div&gt;&lt;/div&gt;&lt;/div&gt;&lt;/div&gt;&lt;/div&gt;&lt;/blockquote&gt;&lt;blockquote style=&quot;margin: 0 0 0 40px; border: none; padding: 0px;&quot;&gt;&lt;div style=&quot;font-family: Menlo, Monaco, &amp;quot;Courier New&amp;quot;, monospace; font-weight: normal; font-size: 16px; line-height: 24px; white-space: pre;&quot;&gt;&lt;div style=&quot;line-height: 24px;&quot;&gt;&lt;div&gt;&lt;div style=&quot;line-height: 24px;&quot;&gt;&lt;div style=&quot;line-height: 24px;&quot;&gt;&lt;font color=&quot;#00cc00&quot;&gt;&lt;span style=&quot;&quot;&gt;  &lt;/span&gt;&lt;span style=&quot;&quot;&gt;return&lt;/span&gt;&lt;span style=&quot;&quot;&gt; &lt;/span&gt;&lt;span style=&quot;&quot;&gt;function&lt;/span&gt;&lt;span style=&quot;&quot;&gt; (&lt;/span&gt;&lt;span style=&quot;&quot;&gt;next&lt;/span&gt;&lt;span style=&quot;&quot;&gt;) {&lt;/span&gt;&lt;/font&gt;&lt;/div&gt;&lt;/div&gt;&lt;/div&gt;&lt;/div&gt;&lt;/div&gt;&lt;div style=&quot;font-family: Menlo, Monaco, &amp;quot;Courier New&amp;quot;, monospace; font-weight: normal; font-size: 16px; line-height: 24px; white-space: pre;&quot;&gt;&lt;div style=&quot;line-height: 24px;&quot;&gt;&lt;div&gt;&lt;div style=&quot;line-height: 24px;&quot;&gt;&lt;div style=&quot;line-height: 24px;&quot;&gt;&lt;font color=&quot;#00cc00&quot;&gt;&lt;span style=&quot;&quot;&gt;    &lt;/span&gt;&lt;span style=&quot;&quot;&gt;return&lt;/span&gt;&lt;span style=&quot;&quot;&gt; &lt;/span&gt;&lt;span style=&quot;&quot;&gt;function&lt;/span&gt;&lt;span style=&quot;&quot;&gt; (&lt;/span&gt;&lt;span style=&quot;&quot;&gt;action&lt;/span&gt;&lt;span style=&quot;&quot;&gt;) {&lt;/span&gt;&lt;/font&gt;&lt;/div&gt;&lt;/div&gt;&lt;/div&gt;&lt;/div&gt;&lt;/div&gt;&lt;div style=&quot;font-family: Menlo, Monaco, &amp;quot;Courier New&amp;quot;, monospace; font-weight: normal; font-size: 16px; line-height: 24px; white-space: pre;&quot;&gt;&lt;div style=&quot;line-height: 24px;&quot;&gt;&lt;div&gt;&lt;div style=&quot;line-height: 24px;&quot;&gt;&lt;div style=&quot;line-height: 24px;&quot;&gt;&lt;font color=&quot;#00cc00&quot;&gt;&lt;span style=&quot;&quot;&gt;      &lt;/span&gt;&lt;span style=&quot;&quot;&gt;return&lt;/span&gt;&lt;span style=&quot;&quot;&gt; &lt;/span&gt;&lt;span style=&quot;&quot;&gt;next&lt;/span&gt;&lt;span style=&quot;&quot;&gt;(&lt;/span&gt;&lt;span style=&quot;&quot;&gt;action&lt;/span&gt;&lt;span style=&quot;&quot;&gt;);&lt;/span&gt;&lt;/font&gt;&lt;/div&gt;&lt;/div&gt;&lt;/div&gt;&lt;/div&gt;&lt;/div&gt;&lt;div style=&quot;font-family: Menlo, Monaco, &amp;quot;Courier New&amp;quot;, monospace; font-weight: normal; font-size: 16px; line-height: 24px; white-space: pre;&quot;&gt;&lt;div style=&quot;line-height: 24px;&quot;&gt;&lt;div&gt;&lt;div style=&quot;line-height: 24px;&quot;&gt;&lt;div style=&quot;line-height: 24px;&quot;&gt;&lt;span style=&quot;&quot;&gt;&lt;font color=&quot;#00cc00&quot;&gt;    };&lt;/font&gt;&lt;/span&gt;&lt;/div&gt;&lt;/div&gt;&lt;/div&gt;&lt;/div&gt;&lt;/div&gt;&lt;div style=&quot;font-family: Menlo, Monaco, &amp;quot;Courier New&amp;quot;, monospace; font-weight: normal; font-size: 16px; line-height: 24px; white-space: pre;&quot;&gt;&lt;div style=&quot;line-height: 24px;&quot;&gt;&lt;div&gt;&lt;div style=&quot;line-height: 24px;&quot;&gt;&lt;div style=&quot;line-height: 24px;&quot;&gt;&lt;span style=&quot;&quot;&gt;&lt;font color=&quot;#00cc00&quot;&gt;  };&lt;/font&gt;&lt;/span&gt;&lt;/div&gt;&lt;/div&gt;&lt;/div&gt;&lt;/div&gt;&lt;/div&gt;&lt;div style=&quot;font-family: Menlo, Monaco, &amp;quot;Courier New&amp;quot;, monospace; font-weight: normal; font-size: 16px; line-height: 24px; white-space: pre;&quot;&gt;&lt;div style=&quot;line-height: 24px;&quot;&gt;&lt;div&gt;&lt;div style=&quot;line-height: 24px;&quot;&gt;&lt;div style=&quot;line-height: 24px;&quot;&gt;&lt;span style=&quot;&quot;&gt;&lt;font color=&quot;#00cc00&quot;&gt;};&lt;/font&gt;&lt;/span&gt;&lt;/div&gt;&lt;/div&gt;&lt;/div&gt;&lt;/div&gt;&lt;/div&gt;&lt;/blockquote&gt;&lt;div style=&quot;font-family: Menlo, Monaco, &amp;quot;Courier New&amp;quot;, monospace; font-weight: normal; font-size: 16px; line-height: 24px; white-space: pre;&quot;&gt;&lt;div style=&quot;line-height: 24px;&quot;&gt;&lt;font color=&quot;#00cc00&quot;&gt;&lt;br&gt;&lt;/font&gt;&lt;/div&gt;&lt;/div&gt;&lt;blockquote style=&quot;margin: 0 0 0 40px; border: none; padding: 0px;&quot;&gt;&lt;div style=&quot;font-family: Menlo, Monaco, &amp;quot;Courier New&amp;quot;, monospace; font-weight: normal; font-size: 16px; line-height: 24px; white-space: pre;&quot;&gt;&lt;div style=&quot;line-height: 24px;&quot;&gt;&lt;div&gt;&lt;font color=&quot;#00cc00&quot;&gt;&lt;span style=&quot;&quot;&gt;const&lt;/span&gt;&lt;span style=&quot;&quot;&gt; &lt;/span&gt;&lt;span style=&quot;&quot;&gt;thunk2&lt;/span&gt;&lt;span style=&quot;&quot;&gt; = &lt;/span&gt;&lt;span style=&quot;&quot;&gt;function&lt;/span&gt;&lt;span style=&quot;&quot;&gt; ({ &lt;/span&gt;&lt;span style=&quot;&quot;&gt;getState&lt;/span&gt;&lt;span style=&quot;&quot;&gt;, &lt;/span&gt;&lt;span style=&quot;&quot;&gt;dispatch&lt;/span&gt;&lt;span style=&quot;&quot;&gt; }) {&lt;/span&gt;&lt;/font&gt;&lt;/div&gt;&lt;/div&gt;&lt;/div&gt;&lt;div style=&quot;font-family: Menlo, Monaco, &amp;quot;Courier New&amp;quot;, monospace; font-weight: normal; font-size: 16px; line-height: 24px; white-space: pre;&quot;&gt;&lt;div style=&quot;line-height: 24px;&quot;&gt;&lt;div&gt;&lt;font color=&quot;#00cc00&quot;&gt;&lt;span style=&quot;&quot;&gt;  &lt;/span&gt;&lt;span style=&quot;&quot;&gt;return&lt;/span&gt;&lt;span style=&quot;&quot;&gt; &lt;/span&gt;&lt;span style=&quot;&quot;&gt;function&lt;/span&gt;&lt;span style=&quot;&quot;&gt; (&lt;/span&gt;&lt;span style=&quot;&quot;&gt;next&lt;/span&gt;&lt;span style=&quot;&quot;&gt;) {&lt;/span&gt;&lt;/font&gt;&lt;/div&gt;&lt;/div&gt;&lt;/div&gt;&lt;div style=&quot;font-family: Menlo, Monaco, &amp;quot;Courier New&amp;quot;, monospace; font-weight: normal; font-size: 16px; line-height: 24px; white-space: pre;&quot;&gt;&lt;div style=&quot;line-height: 24px;&quot;&gt;&lt;div&gt;&lt;font color=&quot;#00cc00&quot;&gt;&lt;span style=&quot;&quot;&gt;    &lt;/span&gt;&lt;span style=&quot;&quot;&gt;return&lt;/span&gt;&lt;span style=&quot;&quot;&gt; &lt;/span&gt;&lt;span style=&quot;&quot;&gt;function&lt;/span&gt;&lt;span style=&quot;&quot;&gt; (&lt;/span&gt;&lt;span style=&quot;&quot;&gt;action&lt;/span&gt;&lt;span style=&quot;&quot;&gt;) {&lt;/span&gt;&lt;/font&gt;&lt;/div&gt;&lt;/div&gt;&lt;/div&gt;&lt;div style=&quot;font-family: Menlo, Monaco, &amp;quot;Courier New&amp;quot;, monospace; font-weight: normal; font-size: 16px; line-height: 24px; white-space: pre;&quot;&gt;&lt;div style=&quot;line-height: 24px;&quot;&gt;&lt;div&gt;&lt;font color=&quot;#00cc00&quot;&gt;&lt;span style=&quot;&quot;&gt;      &lt;/span&gt;&lt;span style=&quot;&quot;&gt;return&lt;/span&gt;&lt;span style=&quot;&quot;&gt; &lt;/span&gt;&lt;span style=&quot;&quot;&gt;next&lt;/span&gt;&lt;span style=&quot;&quot;&gt;(&lt;/span&gt;&lt;span style=&quot;&quot;&gt;action&lt;/span&gt;&lt;span style=&quot;&quot;&gt;);&lt;/span&gt;&lt;/font&gt;&lt;/div&gt;&lt;/div&gt;&lt;/div&gt;&lt;div style=&quot;font-family: Menlo, Monaco, &amp;quot;Courier New&amp;quot;, monospace; font-weight: normal; font-size: 16px; line-height: 24px; white-space: pre;&quot;&gt;&lt;div style=&quot;line-height: 24px;&quot;&gt;&lt;div&gt;&lt;span style=&quot;&quot;&gt;&lt;font color=&quot;#00cc00&quot;&gt;    };&lt;/font&gt;&lt;/span&gt;&lt;/div&gt;&lt;/div&gt;&lt;/div&gt;&lt;div style=&quot;font-family: Menlo, Monaco, &amp;quot;Courier New&amp;quot;, monospace; font-weight: normal; font-size: 16px; line-height: 24px; white-space: pre;&quot;&gt;&lt;div style=&quot;line-height: 24px;&quot;&gt;&lt;div&gt;&lt;span style=&quot;&quot;&gt;&lt;font color=&quot;#00cc00&quot;&gt;  };&lt;/font&gt;&lt;/span&gt;&lt;/div&gt;&lt;/div&gt;&lt;/div&gt;&lt;div style=&quot;font-family: Menlo, Monaco, &amp;quot;Courier New&amp;quot;, monospace; font-weight: normal; font-size: 16px; line-height: 24px; white-space: pre;&quot;&gt;&lt;div style=&quot;line-height: 24px;&quot;&gt;&lt;div&gt;&lt;span style=&quot;&quot;&gt;&lt;font color=&quot;#00cc00&quot;&gt;};&lt;/font&gt;&lt;/span&gt;&lt;/div&gt;&lt;div&gt;&lt;span style=&quot;&quot;&gt;&lt;font color=&quot;#00cc00&quot;&gt;&lt;br&gt;&lt;/font&gt;&lt;/span&gt;&lt;/div&gt;&lt;div&gt;&lt;font color=&quot;#00cc00&quot;&gt;applyMiddileware(thunk1， thunk2)&lt;/font&gt;&lt;br&gt;&lt;/div&gt;&lt;/div&gt;&lt;/div&gt;&lt;/blockquote&gt;" style="rounded=1;whiteSpace=wrap;html=1;align=left;fontColor=#007FFF;labelBackgroundColor=none;gradientColor=default;gradientDirection=north;fillColor=#CC0000;glass=0;shadow=0;labelBorderColor=none;textShadow=0;" vertex="1" parent="1">
          <mxGeometry x="260" y="475" width="668" height="1040" as="geometry" />
        </mxCell>
        <mxCell id="XYzWHzTVNK9J-gLb8ux9-14" value="&lt;font face=&quot;Menlo, Monaco, Courier New, monospace&quot; color=&quot;#007fff&quot;&gt;&lt;span style=&quot;font-size: 16px; white-space: pre;&quot;&gt;&lt;div&gt;&lt;br&gt;&lt;/div&gt;&lt;ul&gt;&lt;li&gt;&lt;span style=&quot;background-color: initial;&quot;&gt;applyMiddileware()里无中间件&lt;/span&gt;&lt;/li&gt;&lt;/ul&gt;&lt;div&gt;&lt;br&gt;&lt;/div&gt;&lt;div&gt;&lt;br&gt;&lt;/div&gt;&lt;div&gt;&lt;br&gt;&lt;/div&gt;&lt;div&gt;&lt;br&gt;&lt;/div&gt;&lt;div&gt;&lt;br&gt;&lt;/div&gt;&lt;div&gt;&lt;br&gt;&lt;/div&gt;&lt;ul&gt;&lt;li&gt;&lt;span style=&quot;background-color: initial;&quot;&gt;一个中间件&lt;/span&gt;&lt;/li&gt;&lt;/ul&gt;&lt;div&gt;&lt;br&gt;&lt;/div&gt;&lt;div&gt;&lt;br&gt;&lt;/div&gt;&lt;div&gt;&lt;br&gt;&lt;/div&gt;&lt;div&gt;&lt;br&gt;&lt;/div&gt;&lt;div&gt;&lt;br&gt;&lt;/div&gt;&lt;div&gt;&lt;br&gt;&lt;/div&gt;&lt;ul&gt;&lt;li&gt;两个中间件以上&lt;/li&gt;&lt;/ul&gt;&lt;/span&gt;&lt;/font&gt;&lt;span style=&quot;background-color: initial; color: rgb(0, 127, 255); font-family: Menlo, Monaco, &amp;quot;Courier New&amp;quot;, monospace; font-size: 16px; white-space: pre;&quot;&gt;&lt;span style=&quot;white-space: pre;&quot;&gt;&#x9;&lt;/span&gt;&lt;/span&gt;" style="rounded=1;whiteSpace=wrap;html=1;align=left;fillColor=#CC0000;gradientColor=default;labelBackgroundColor=none;labelBorderColor=none;spacingTop=18;gradientDirection=north;strokeColor=default;" vertex="1" parent="1">
          <mxGeometry x="940" y="1515" width="1280" height="980" as="geometry" />
        </mxCell>
        <mxCell id="XYzWHzTVNK9J-gLb8ux9-15" value="&lt;font style=&quot;font-size: 33px;&quot;&gt;中间件&lt;/font&gt;" style="rounded=1;whiteSpace=wrap;html=1;labelBorderColor=none;labelBackgroundColor=none;fillColor=#6666FF;strokeColor=#d6b656;" vertex="1" parent="1">
          <mxGeometry x="340" y="495" width="510" height="60" as="geometry" />
        </mxCell>
        <mxCell id="XYzWHzTVNK9J-gLb8ux9-18" value="&lt;span style=&quot;font-family: Menlo, Monaco, &amp;quot;Courier New&amp;quot;, monospace; font-size: 16px; white-space: pre; color: rgb(86, 156, 214);&quot;&gt;const&lt;/span&gt;&lt;span style=&quot;font-family: Menlo, Monaco, &amp;quot;Courier New&amp;quot;, monospace; font-size: 16px; white-space: pre; color: rgb(212, 212, 212);&quot;&gt; &lt;/span&gt;&lt;span style=&quot;font-family: Menlo, Monaco, &amp;quot;Courier New&amp;quot;, monospace; font-size: 16px; white-space: pre; color: rgb(220, 220, 170);&quot;&gt;thunk1&lt;/span&gt;&lt;span style=&quot;font-family: Menlo, Monaco, &amp;quot;Courier New&amp;quot;, monospace; font-size: 16px; white-space: pre; color: rgb(212, 212, 212);&quot;&gt; = &lt;/span&gt;&lt;span style=&quot;font-family: Menlo, Monaco, &amp;quot;Courier New&amp;quot;, monospace; font-size: 16px; white-space: pre; color: rgb(86, 156, 214);&quot;&gt;function&lt;/span&gt;&lt;span style=&quot;font-family: Menlo, Monaco, &amp;quot;Courier New&amp;quot;, monospace; font-size: 16px; white-space: pre; color: rgb(212, 212, 212);&quot;&gt; ({ &lt;/span&gt;&lt;span style=&quot;font-family: Menlo, Monaco, &amp;quot;Courier New&amp;quot;, monospace; font-size: 16px; white-space: pre; color: rgb(156, 220, 254);&quot;&gt;getState&lt;/span&gt;&lt;span style=&quot;font-family: Menlo, Monaco, &amp;quot;Courier New&amp;quot;, monospace; font-size: 16px; white-space: pre; color: rgb(212, 212, 212);&quot;&gt;, &lt;/span&gt;&lt;span style=&quot;font-family: Menlo, Monaco, &amp;quot;Courier New&amp;quot;, monospace; font-size: 16px; white-space: pre; color: rgb(156, 220, 254);&quot;&gt;dispatch&lt;/span&gt;&lt;span style=&quot;font-family: Menlo, Monaco, &amp;quot;Courier New&amp;quot;, monospace; font-size: 16px; white-space: pre; color: rgb(212, 212, 212);&quot;&gt; }) {&lt;/span&gt;&lt;br&gt;&lt;span style=&quot;font-family: Menlo, Monaco, &amp;quot;Courier New&amp;quot;, monospace; font-size: 16px; white-space: pre; color: rgb(212, 212, 212);&quot;&gt;  &lt;/span&gt;&lt;span style=&quot;font-family: Menlo, Monaco, &amp;quot;Courier New&amp;quot;, monospace; font-size: 16px; white-space: pre; color: rgb(197, 134, 192);&quot;&gt;return&lt;/span&gt;&lt;span style=&quot;font-family: Menlo, Monaco, &amp;quot;Courier New&amp;quot;, monospace; font-size: 16px; white-space: pre; color: rgb(212, 212, 212);&quot;&gt; &lt;/span&gt;&lt;span style=&quot;font-family: Menlo, Monaco, &amp;quot;Courier New&amp;quot;, monospace; font-size: 16px; white-space: pre; color: rgb(86, 156, 214);&quot;&gt;function&lt;/span&gt;&lt;span style=&quot;font-family: Menlo, Monaco, &amp;quot;Courier New&amp;quot;, monospace; font-size: 16px; white-space: pre; color: rgb(212, 212, 212);&quot;&gt; (&lt;/span&gt;&lt;span style=&quot;font-family: Menlo, Monaco, &amp;quot;Courier New&amp;quot;, monospace; font-size: 16px; white-space: pre; color: rgb(156, 220, 254);&quot;&gt;next&lt;/span&gt;&lt;span style=&quot;font-family: Menlo, Monaco, &amp;quot;Courier New&amp;quot;, monospace; font-size: 16px; white-space: pre; color: rgb(212, 212, 212);&quot;&gt;) {&lt;/span&gt;&lt;br&gt;&lt;span style=&quot;font-family: Menlo, Monaco, &amp;quot;Courier New&amp;quot;, monospace; font-size: 16px; white-space: pre; color: rgb(212, 212, 212);&quot;&gt;    &lt;/span&gt;&lt;span style=&quot;font-family: Menlo, Monaco, &amp;quot;Courier New&amp;quot;, monospace; font-size: 16px; white-space: pre; color: rgb(197, 134, 192);&quot;&gt;return&lt;/span&gt;&lt;span style=&quot;font-family: Menlo, Monaco, &amp;quot;Courier New&amp;quot;, monospace; font-size: 16px; white-space: pre; color: rgb(212, 212, 212);&quot;&gt; &lt;/span&gt;&lt;span style=&quot;font-family: Menlo, Monaco, &amp;quot;Courier New&amp;quot;, monospace; font-size: 16px; white-space: pre; color: rgb(86, 156, 214);&quot;&gt;function&lt;/span&gt;&lt;span style=&quot;font-family: Menlo, Monaco, &amp;quot;Courier New&amp;quot;, monospace; font-size: 16px; white-space: pre; color: rgb(212, 212, 212);&quot;&gt; (&lt;/span&gt;&lt;span style=&quot;font-family: Menlo, Monaco, &amp;quot;Courier New&amp;quot;, monospace; font-size: 16px; white-space: pre; color: rgb(156, 220, 254);&quot;&gt;action&lt;/span&gt;&lt;span style=&quot;font-family: Menlo, Monaco, &amp;quot;Courier New&amp;quot;, monospace; font-size: 16px; white-space: pre; color: rgb(212, 212, 212);&quot;&gt;) {&lt;/span&gt;&lt;br&gt;&lt;span style=&quot;font-family: Menlo, Monaco, &amp;quot;Courier New&amp;quot;, monospace; font-size: 16px; white-space: pre; color: rgb(212, 212, 212);&quot;&gt;      &lt;/span&gt;&lt;span style=&quot;font-family: Menlo, Monaco, &amp;quot;Courier New&amp;quot;, monospace; font-size: 16px; white-space: pre; color: rgb(197, 134, 192);&quot;&gt;return&lt;/span&gt;&lt;span style=&quot;font-family: Menlo, Monaco, &amp;quot;Courier New&amp;quot;, monospace; font-size: 16px; white-space: pre; color: rgb(212, 212, 212);&quot;&gt; &lt;/span&gt;&lt;span style=&quot;font-family: Menlo, Monaco, &amp;quot;Courier New&amp;quot;, monospace; font-size: 16px; white-space: pre; color: rgb(220, 220, 170);&quot;&gt;next&lt;/span&gt;&lt;span style=&quot;font-family: Menlo, Monaco, &amp;quot;Courier New&amp;quot;, monospace; font-size: 16px; white-space: pre; color: rgb(212, 212, 212);&quot;&gt;(&lt;/span&gt;&lt;span style=&quot;font-family: Menlo, Monaco, &amp;quot;Courier New&amp;quot;, monospace; font-size: 16px; white-space: pre; color: rgb(156, 220, 254);&quot;&gt;action&lt;/span&gt;&lt;span style=&quot;font-family: Menlo, Monaco, &amp;quot;Courier New&amp;quot;, monospace; font-size: 16px; white-space: pre; color: rgb(212, 212, 212);&quot;&gt;);&lt;/span&gt;&lt;br&gt;&lt;span style=&quot;color: rgb(212, 212, 212); font-family: Menlo, Monaco, &amp;quot;Courier New&amp;quot;, monospace; font-size: 16px; white-space: pre;&quot;&gt;    };&lt;/span&gt;&lt;br&gt;&lt;span style=&quot;color: rgb(212, 212, 212); font-family: Menlo, Monaco, &amp;quot;Courier New&amp;quot;, monospace; font-size: 16px; white-space: pre;&quot;&gt;  };&lt;/span&gt;&lt;br&gt;&lt;div style=&quot;color: rgb(204, 204, 204); font-family: Menlo, Monaco, &amp;quot;Courier New&amp;quot;, monospace; font-size: 16px; line-height: 24px; white-space: pre;&quot;&gt;&lt;div style=&quot;line-height: 24px;&quot;&gt;&lt;div&gt;&lt;span style=&quot;color: #d4d4d4;&quot;&gt;};&lt;/span&gt;&lt;/div&gt;&lt;/div&gt;&lt;/div&gt;&lt;div style=&quot;color: rgb(204, 204, 204); font-family: Menlo, Monaco, &amp;quot;Courier New&amp;quot;, monospace; font-size: 16px; line-height: 24px; white-space: pre;&quot;&gt;&lt;div style=&quot;line-height: 24px;&quot;&gt;&lt;br&gt;&lt;/div&gt;&lt;/div&gt;&lt;span style=&quot;font-family: Menlo, Monaco, &amp;quot;Courier New&amp;quot;, monospace; font-size: 16px; white-space: pre; color: rgb(86, 156, 214);&quot;&gt;const&lt;/span&gt;&lt;span style=&quot;font-family: Menlo, Monaco, &amp;quot;Courier New&amp;quot;, monospace; font-size: 16px; white-space: pre; color: rgb(212, 212, 212);&quot;&gt; &lt;/span&gt;&lt;span style=&quot;font-family: Menlo, Monaco, &amp;quot;Courier New&amp;quot;, monospace; font-size: 16px; white-space: pre; color: rgb(220, 220, 170);&quot;&gt;thunk2&lt;/span&gt;&lt;span style=&quot;font-family: Menlo, Monaco, &amp;quot;Courier New&amp;quot;, monospace; font-size: 16px; white-space: pre; color: rgb(212, 212, 212);&quot;&gt; = &lt;/span&gt;&lt;span style=&quot;font-family: Menlo, Monaco, &amp;quot;Courier New&amp;quot;, monospace; font-size: 16px; white-space: pre; color: rgb(86, 156, 214);&quot;&gt;function&lt;/span&gt;&lt;span style=&quot;font-family: Menlo, Monaco, &amp;quot;Courier New&amp;quot;, monospace; font-size: 16px; white-space: pre; color: rgb(212, 212, 212);&quot;&gt; ({ &lt;/span&gt;&lt;span style=&quot;font-family: Menlo, Monaco, &amp;quot;Courier New&amp;quot;, monospace; font-size: 16px; white-space: pre; color: rgb(156, 220, 254);&quot;&gt;getState&lt;/span&gt;&lt;span style=&quot;font-family: Menlo, Monaco, &amp;quot;Courier New&amp;quot;, monospace; font-size: 16px; white-space: pre; color: rgb(212, 212, 212);&quot;&gt;, &lt;/span&gt;&lt;span style=&quot;font-family: Menlo, Monaco, &amp;quot;Courier New&amp;quot;, monospace; font-size: 16px; white-space: pre; color: rgb(156, 220, 254);&quot;&gt;dispatch&lt;/span&gt;&lt;span style=&quot;font-family: Menlo, Monaco, &amp;quot;Courier New&amp;quot;, monospace; font-size: 16px; white-space: pre; color: rgb(212, 212, 212);&quot;&gt; }) {&lt;/span&gt;&lt;br&gt;&lt;span style=&quot;font-family: Menlo, Monaco, &amp;quot;Courier New&amp;quot;, monospace; font-size: 16px; white-space: pre; color: rgb(212, 212, 212);&quot;&gt;  &lt;/span&gt;&lt;span style=&quot;font-family: Menlo, Monaco, &amp;quot;Courier New&amp;quot;, monospace; font-size: 16px; white-space: pre; color: rgb(197, 134, 192);&quot;&gt;return&lt;/span&gt;&lt;span style=&quot;font-family: Menlo, Monaco, &amp;quot;Courier New&amp;quot;, monospace; font-size: 16px; white-space: pre; color: rgb(212, 212, 212);&quot;&gt; &lt;/span&gt;&lt;span style=&quot;font-family: Menlo, Monaco, &amp;quot;Courier New&amp;quot;, monospace; font-size: 16px; white-space: pre; color: rgb(86, 156, 214);&quot;&gt;function&lt;/span&gt;&lt;span style=&quot;font-family: Menlo, Monaco, &amp;quot;Courier New&amp;quot;, monospace; font-size: 16px; white-space: pre; color: rgb(212, 212, 212);&quot;&gt; (&lt;/span&gt;&lt;span style=&quot;font-family: Menlo, Monaco, &amp;quot;Courier New&amp;quot;, monospace; font-size: 16px; white-space: pre; color: rgb(156, 220, 254);&quot;&gt;next&lt;/span&gt;&lt;span style=&quot;font-family: Menlo, Monaco, &amp;quot;Courier New&amp;quot;, monospace; font-size: 16px; white-space: pre; color: rgb(212, 212, 212);&quot;&gt;) {&lt;/span&gt;&lt;br&gt;&lt;span style=&quot;font-family: Menlo, Monaco, &amp;quot;Courier New&amp;quot;, monospace; font-size: 16px; white-space: pre; color: rgb(212, 212, 212);&quot;&gt;    &lt;/span&gt;&lt;span style=&quot;font-family: Menlo, Monaco, &amp;quot;Courier New&amp;quot;, monospace; font-size: 16px; white-space: pre; color: rgb(197, 134, 192);&quot;&gt;return&lt;/span&gt;&lt;span style=&quot;font-family: Menlo, Monaco, &amp;quot;Courier New&amp;quot;, monospace; font-size: 16px; white-space: pre; color: rgb(212, 212, 212);&quot;&gt; &lt;/span&gt;&lt;span style=&quot;font-family: Menlo, Monaco, &amp;quot;Courier New&amp;quot;, monospace; font-size: 16px; white-space: pre; color: rgb(86, 156, 214);&quot;&gt;function&lt;/span&gt;&lt;span style=&quot;font-family: Menlo, Monaco, &amp;quot;Courier New&amp;quot;, monospace; font-size: 16px; white-space: pre; color: rgb(212, 212, 212);&quot;&gt; (&lt;/span&gt;&lt;span style=&quot;font-family: Menlo, Monaco, &amp;quot;Courier New&amp;quot;, monospace; font-size: 16px; white-space: pre; color: rgb(156, 220, 254);&quot;&gt;action&lt;/span&gt;&lt;span style=&quot;font-family: Menlo, Monaco, &amp;quot;Courier New&amp;quot;, monospace; font-size: 16px; white-space: pre; color: rgb(212, 212, 212);&quot;&gt;) {&lt;/span&gt;&lt;br&gt;&lt;span style=&quot;font-family: Menlo, Monaco, &amp;quot;Courier New&amp;quot;, monospace; font-size: 16px; white-space: pre; color: rgb(212, 212, 212);&quot;&gt;      &lt;/span&gt;&lt;span style=&quot;font-family: Menlo, Monaco, &amp;quot;Courier New&amp;quot;, monospace; font-size: 16px; white-space: pre; color: rgb(197, 134, 192);&quot;&gt;return&lt;/span&gt;&lt;span style=&quot;font-family: Menlo, Monaco, &amp;quot;Courier New&amp;quot;, monospace; font-size: 16px; white-space: pre; color: rgb(212, 212, 212);&quot;&gt; &lt;/span&gt;&lt;span style=&quot;font-family: Menlo, Monaco, &amp;quot;Courier New&amp;quot;, monospace; font-size: 16px; white-space: pre; color: rgb(220, 220, 170);&quot;&gt;next&lt;/span&gt;&lt;span style=&quot;font-family: Menlo, Monaco, &amp;quot;Courier New&amp;quot;, monospace; font-size: 16px; white-space: pre; color: rgb(212, 212, 212);&quot;&gt;(&lt;/span&gt;&lt;span style=&quot;font-family: Menlo, Monaco, &amp;quot;Courier New&amp;quot;, monospace; font-size: 16px; white-space: pre; color: rgb(156, 220, 254);&quot;&gt;action&lt;/span&gt;&lt;span style=&quot;font-family: Menlo, Monaco, &amp;quot;Courier New&amp;quot;, monospace; font-size: 16px; white-space: pre; color: rgb(212, 212, 212);&quot;&gt;);&lt;/span&gt;&lt;br&gt;&lt;span style=&quot;color: rgb(212, 212, 212); font-family: Menlo, Monaco, &amp;quot;Courier New&amp;quot;, monospace; font-size: 16px; white-space: pre;&quot;&gt;    };&lt;/span&gt;&lt;br&gt;&lt;span style=&quot;color: rgb(212, 212, 212); font-family: Menlo, Monaco, &amp;quot;Courier New&amp;quot;, monospace; font-size: 16px; white-space: pre;&quot;&gt;  };&lt;/span&gt;&lt;br&gt;&lt;div style=&quot;color: rgb(204, 204, 204); font-family: Menlo, Monaco, &amp;quot;Courier New&amp;quot;, monospace; font-size: 16px; line-height: 24px; white-space: pre;&quot;&gt;&lt;div style=&quot;line-height: 24px;&quot;&gt;&lt;div style=&quot;&quot;&gt;&lt;span style=&quot;color: #d4d4d4;&quot;&gt;};&lt;/span&gt;&lt;/div&gt;&lt;/div&gt;&lt;/div&gt;&lt;div style=&quot;color: rgb(204, 204, 204); font-family: Menlo, Monaco, &amp;quot;Courier New&amp;quot;, monospace; font-size: 16px; line-height: 24px; white-space: pre;&quot;&gt;&lt;div style=&quot;line-height: 24px;&quot;&gt;&lt;div style=&quot;&quot;&gt;&lt;br&gt;&lt;/div&gt;&lt;div style=&quot;&quot;&gt;&lt;div style=&quot;background-color: rgb(31, 31, 31); line-height: 24px;&quot;&gt;&lt;span style=&quot;color: #dcdcaa;&quot;&gt;applyMiddleware&lt;/span&gt;&lt;span style=&quot;color: #d4d4d4;&quot;&gt;(&lt;/span&gt;&lt;span style=&quot;color: #9cdcfe;&quot;&gt;thunk1&lt;/span&gt;&lt;span style=&quot;color: #d4d4d4;&quot;&gt;, &lt;/span&gt;&lt;span style=&quot;color: #9cdcfe;&quot;&gt;thunk2&lt;/span&gt;&lt;span style=&quot;color: #d4d4d4;&quot;&gt;);&lt;/span&gt;&lt;/div&gt;&lt;/div&gt;&lt;/div&gt;&lt;/div&gt;" style="rounded=1;html=1;fillColor=#000000;align=left;labelBackgroundColor=#000000;labelBorderColor=none;textShadow=0;whiteSpace=wrap;spacingLeft=27;" vertex="1" parent="1">
          <mxGeometry x="280" y="995" width="590" height="450" as="geometry" />
        </mxCell>
        <mxCell id="XYzWHzTVNK9J-gLb8ux9-19" value="&lt;div style=&quot;color: rgb(204, 204, 204); font-family: Menlo, Monaco, &amp;quot;Courier New&amp;quot;, monospace; font-size: 16px; line-height: 24px; white-space: pre;&quot;&gt;&lt;div style=&quot;color: rgb(0, 127, 255); text-align: left; line-height: 24px;&quot;&gt;&lt;div style=&quot;color: rgb(204, 204, 204); line-height: 24px;&quot;&gt;&lt;div&gt;&lt;span style=&quot;color: #569cd6;&quot;&gt;const&lt;/span&gt;&lt;span style=&quot;color: #d4d4d4;&quot;&gt; &lt;/span&gt;&lt;span style=&quot;color: #dcdcaa;&quot;&gt;thunk1&lt;/span&gt;&lt;span style=&quot;color: #d4d4d4;&quot;&gt; = &lt;/span&gt;&lt;span style=&quot;color: #569cd6;&quot;&gt;function&lt;/span&gt;&lt;span style=&quot;color: #d4d4d4;&quot;&gt; ({ &lt;/span&gt;&lt;span style=&quot;color: #9cdcfe;&quot;&gt;getState&lt;/span&gt;&lt;span style=&quot;color: #d4d4d4;&quot;&gt;, &lt;/span&gt;&lt;span style=&quot;color: #9cdcfe;&quot;&gt;dispatch&lt;/span&gt;&lt;span style=&quot;color: #d4d4d4;&quot;&gt; }) {&lt;/span&gt;&lt;/div&gt;&lt;div&gt;&lt;span style=&quot;color: #d4d4d4;&quot;&gt;  &lt;/span&gt;&lt;span style=&quot;color: #c586c0;&quot;&gt;return&lt;/span&gt;&lt;span style=&quot;color: #d4d4d4;&quot;&gt; &lt;/span&gt;&lt;span style=&quot;color: #569cd6;&quot;&gt;function&lt;/span&gt;&lt;span style=&quot;color: #d4d4d4;&quot;&gt; (&lt;/span&gt;&lt;span style=&quot;color: #9cdcfe;&quot;&gt;next&lt;/span&gt;&lt;span style=&quot;color: #d4d4d4;&quot;&gt;) {&lt;/span&gt;&lt;/div&gt;&lt;div&gt;&lt;span style=&quot;color: #d4d4d4;&quot;&gt;    &lt;/span&gt;&lt;span style=&quot;color: #c586c0;&quot;&gt;return&lt;/span&gt;&lt;span style=&quot;color: #d4d4d4;&quot;&gt; &lt;/span&gt;&lt;span style=&quot;color: #569cd6;&quot;&gt;function&lt;/span&gt;&lt;span style=&quot;color: #d4d4d4;&quot;&gt; (&lt;/span&gt;&lt;span style=&quot;color: #9cdcfe;&quot;&gt;action&lt;/span&gt;&lt;span style=&quot;color: #d4d4d4;&quot;&gt;) {&lt;/span&gt;&lt;/div&gt;&lt;div&gt;&lt;span style=&quot;color: #d4d4d4;&quot;&gt;      &lt;/span&gt;&lt;span style=&quot;color: #c586c0;&quot;&gt;return&lt;/span&gt;&lt;span style=&quot;color: #d4d4d4;&quot;&gt; &lt;/span&gt;&lt;span style=&quot;color: #dcdcaa;&quot;&gt;next&lt;/span&gt;&lt;span style=&quot;color: #d4d4d4;&quot;&gt;(&lt;/span&gt;&lt;span style=&quot;color: #9cdcfe;&quot;&gt;action&lt;/span&gt;&lt;span style=&quot;color: #d4d4d4;&quot;&gt;);&lt;/span&gt;&lt;/div&gt;&lt;div&gt;&lt;span style=&quot;color: #d4d4d4;&quot;&gt;    };&lt;/span&gt;&lt;/div&gt;&lt;div&gt;&lt;span style=&quot;color: #d4d4d4;&quot;&gt;  };&lt;/span&gt;&lt;/div&gt;&lt;div&gt;&lt;span style=&quot;color: #d4d4d4;&quot;&gt;};&lt;/span&gt;&lt;/div&gt;&lt;div&gt;&lt;span style=&quot;color: #d4d4d4;&quot;&gt;&lt;br&gt;&lt;/span&gt;&lt;/div&gt;&lt;div&gt;&lt;div style=&quot;background-color: rgb(31, 31, 31); line-height: 24px;&quot;&gt;&lt;div&gt;&lt;span style=&quot;color: #dcdcaa;&quot;&gt;applyMiddleware&lt;/span&gt;&lt;span style=&quot;color: #d4d4d4;&quot;&gt;(&lt;/span&gt;&lt;span style=&quot;color: #9cdcfe;&quot;&gt;thunk1&lt;/span&gt;&lt;span style=&quot;color: #d4d4d4;&quot;&gt;);&lt;/span&gt;&lt;/div&gt;&lt;/div&gt;&lt;/div&gt;&lt;/div&gt;&lt;/div&gt;&lt;/div&gt;" style="rounded=1;whiteSpace=wrap;html=1;labelBackgroundColor=#000000;labelBorderColor=none;fillColor=#000000;" vertex="1" parent="1">
          <mxGeometry x="290" y="675" width="530" height="250" as="geometry" />
        </mxCell>
        <mxCell id="XYzWHzTVNK9J-gLb8ux9-21" value="&lt;span style=&quot;font-size: 33px;&quot;&gt;applyMiddleware&lt;/span&gt;" style="rounded=1;whiteSpace=wrap;html=1;labelBorderColor=none;labelBackgroundColor=none;fillColor=#6666FF;strokeColor=#d6b656;" vertex="1" parent="1">
          <mxGeometry x="1170" y="590" width="660" height="100" as="geometry" />
        </mxCell>
        <mxCell id="XYzWHzTVNK9J-gLb8ux9-85" style="edgeStyle=orthogonalEdgeStyle;rounded=0;orthogonalLoop=1;jettySize=auto;html=1;exitX=0.5;exitY=0;exitDx=0;exitDy=0;strokeColor=#FF6392;fontColor=#5AA9E6;fillColor=#FFE45E;strokeWidth=16;" edge="1" parent="1" source="XYzWHzTVNK9J-gLb8ux9-28" target="XYzWHzTVNK9J-gLb8ux9-3">
          <mxGeometry relative="1" as="geometry">
            <Array as="points">
              <mxPoint x="1518" y="1450" />
              <mxPoint x="1520" y="1450" />
            </Array>
          </mxGeometry>
        </mxCell>
        <mxCell id="XYzWHzTVNK9J-gLb8ux9-28" value="&lt;span style=&quot;font-size: 33px;&quot;&gt;compose返回&lt;/span&gt;" style="rounded=1;whiteSpace=wrap;html=1;labelBorderColor=none;labelBackgroundColor=none;fillColor=#6666FF;strokeColor=#d6b656;" vertex="1" parent="1">
          <mxGeometry x="1240" y="1525" width="557" height="90" as="geometry" />
        </mxCell>
        <mxCell id="XYzWHzTVNK9J-gLb8ux9-29" value="&lt;div style=&quot;font-family: Menlo, Monaco, &amp;quot;Courier New&amp;quot;, monospace; font-size: 16px; line-height: 24px; white-space: pre; color: rgb(204, 204, 204);&quot;&gt;&lt;div style=&quot;line-height: 24px;&quot;&gt;&lt;div style=&quot;line-height: 24px;&quot;&gt;&lt;div&gt;&lt;span style=&quot;color: #569cd6;&quot;&gt;(function&lt;/span&gt;&lt;span style=&quot;color: #d4d4d4;&quot;&gt; (&lt;/span&gt;&lt;span style=&quot;color: #9cdcfe;&quot;&gt;arg&lt;/span&gt;&lt;span style=&quot;color: #d4d4d4;&quot;&gt;){&lt;/span&gt;&lt;/div&gt;&lt;div&gt;&lt;span style=&quot;color: #d4d4d4;&quot;&gt;  &lt;/span&gt;&lt;span style=&quot;color: #c586c0;&quot;&gt;return&lt;/span&gt;&lt;span style=&quot;color: #d4d4d4;&quot;&gt; &lt;/span&gt;&lt;span style=&quot;color: #9cdcfe;&quot;&gt;arg&lt;/span&gt;&lt;/div&gt;&lt;div&gt;&lt;span style=&quot;color: #d4d4d4;&quot;&gt;})(store.dispatch)&lt;/span&gt;&lt;/div&gt;&lt;/div&gt;&lt;/div&gt;&lt;/div&gt;" style="rounded=1;whiteSpace=wrap;html=1;fillColor=#000000;gradientColor=none;labelBackgroundColor=#000000;align=left;spacingLeft=14;" vertex="1" parent="1">
          <mxGeometry x="973" y="1885" width="280" height="90" as="geometry" />
        </mxCell>
        <mxCell id="XYzWHzTVNK9J-gLb8ux9-30" value="&lt;div style=&quot;font-family: Menlo, Monaco, &amp;quot;Courier New&amp;quot;, monospace; font-size: 16px; line-height: 24px; white-space: pre;&quot;&gt;&lt;div style=&quot;line-height: 24px;&quot;&gt;&lt;div style=&quot;line-height: 24px;&quot;&gt;&lt;div style=&quot;&quot;&gt;&lt;span style=&quot;color: rgb(212, 212, 212);&quot;&gt;  (&lt;/span&gt;&lt;span style=&quot;color: rgb(86, 156, 214);&quot;&gt;function&lt;/span&gt;&lt;font color=&quot;#dcdcaa&quot;&gt; &lt;/font&gt;&lt;span style=&quot;color: rgb(212, 212, 212);&quot;&gt;(&lt;/span&gt;&lt;span style=&quot;color: rgb(156, 220, 254);&quot;&gt;next&lt;/span&gt;&lt;span style=&quot;color: rgb(212, 212, 212);&quot;&gt;) {&lt;/span&gt;&lt;/div&gt;&lt;div style=&quot;color: rgb(204, 204, 204);&quot;&gt;&lt;span style=&quot;color: #d4d4d4;&quot;&gt;    &lt;/span&gt;&lt;span style=&quot;color: #c586c0;&quot;&gt;return&lt;/span&gt;&lt;span style=&quot;color: #d4d4d4;&quot;&gt; &lt;/span&gt;&lt;span style=&quot;color: #569cd6;&quot;&gt;function&lt;/span&gt;&lt;span style=&quot;color: #d4d4d4;&quot;&gt; (&lt;/span&gt;&lt;span style=&quot;color: #9cdcfe;&quot;&gt;action&lt;/span&gt;&lt;span style=&quot;color: #d4d4d4;&quot;&gt;) {&lt;/span&gt;&lt;/div&gt;&lt;div style=&quot;color: rgb(204, 204, 204);&quot;&gt;&lt;span style=&quot;color: #d4d4d4;&quot;&gt;      &lt;/span&gt;&lt;span style=&quot;color: #c586c0;&quot;&gt;return&lt;/span&gt;&lt;span style=&quot;color: #d4d4d4;&quot;&gt; &lt;/span&gt;&lt;span style=&quot;color: #dcdcaa;&quot;&gt;next&lt;/span&gt;&lt;span style=&quot;color: #d4d4d4;&quot;&gt;(&lt;/span&gt;&lt;span style=&quot;color: #9cdcfe;&quot;&gt;action&lt;/span&gt;&lt;span style=&quot;color: #d4d4d4;&quot;&gt;);&lt;/span&gt;&lt;/div&gt;&lt;div style=&quot;color: rgb(204, 204, 204);&quot;&gt;&lt;span style=&quot;color: #d4d4d4;&quot;&gt;    };&lt;/span&gt;&lt;/div&gt;&lt;div style=&quot;color: rgb(204, 204, 204);&quot;&gt;&lt;span style=&quot;color: #d4d4d4;&quot;&gt;  })(store.dispatch)&lt;/span&gt;&lt;/div&gt;&lt;/div&gt;&lt;/div&gt;&lt;/div&gt;" style="rounded=1;whiteSpace=wrap;html=1;fillColor=#000000;gradientColor=none;labelBackgroundColor=none;align=left;spacingLeft=2;" vertex="1" parent="1">
          <mxGeometry x="973" y="2035" width="317" height="120" as="geometry" />
        </mxCell>
        <mxCell id="XYzWHzTVNK9J-gLb8ux9-33" value="&lt;h4 style=&quot;overflow-wrap: break-word; margin: 16px 0px 8px; padding: 0px; font-size: 14px; box-sizing: border-box; list-style: inherit; line-height: 24px; font-family: &amp;quot;pingfang SC&amp;quot;, &amp;quot;helvetica neue&amp;quot;, arial, &amp;quot;hiragino sans gb&amp;quot;, &amp;quot;microsoft yahei ui&amp;quot;, &amp;quot;microsoft yahei&amp;quot;, simsun, sans-serif; white-space-collapse: preserve;&quot; name=&quot;compose&quot; id=&quot;93c0k&quot;&gt;&lt;div style=&quot;font-family: Menlo, Monaco, &amp;quot;Courier New&amp;quot;, monospace; font-weight: normal; font-size: 16px; line-height: 24px; text-wrap: nowrap; color: rgb(204, 204, 204);&quot;&gt;&lt;div style=&quot;line-height: 24px;&quot;&gt;&lt;div&gt;&lt;span style=&quot;color: #9cdcfe;&quot;&gt;(funcs&lt;/span&gt;&lt;span style=&quot;color: #d4d4d4;&quot;&gt;.&lt;/span&gt;&lt;span style=&quot;color: #dcdcaa;&quot;&gt;reduce&lt;/span&gt;&lt;span style=&quot;color: #d4d4d4;&quot;&gt;(&lt;/span&gt;&lt;/div&gt;&lt;div&gt;&lt;span style=&quot;color: #d4d4d4;&quot;&gt;  (&lt;/span&gt;&lt;span style=&quot;color: #9cdcfe;&quot;&gt;a&lt;/span&gt;&lt;span style=&quot;color: #d4d4d4;&quot;&gt;, &lt;/span&gt;&lt;span style=&quot;color: #9cdcfe;&quot;&gt;b&lt;/span&gt;&lt;span style=&quot;color: #d4d4d4;&quot;&gt;) &lt;/span&gt;&lt;span style=&quot;color: #569cd6;&quot;&gt;=&amp;gt;&lt;/span&gt;&lt;/div&gt;&lt;div&gt;&lt;span style=&quot;color: #d4d4d4;&quot;&gt;    (...&lt;/span&gt;&lt;span style=&quot;color: #9cdcfe;&quot;&gt;args&lt;/span&gt;&lt;span style=&quot;color: #d4d4d4;&quot;&gt;) &lt;/span&gt;&lt;span style=&quot;color: #569cd6;&quot;&gt;=&amp;gt;&lt;/span&gt;&lt;/div&gt;&lt;div&gt;&lt;span style=&quot;color: #d4d4d4;&quot;&gt;      &lt;/span&gt;&lt;span style=&quot;color: #dcdcaa;&quot;&gt;a&lt;/span&gt;&lt;span style=&quot;color: #d4d4d4;&quot;&gt;(&lt;/span&gt;&lt;span style=&quot;color: #dcdcaa;&quot;&gt;b&lt;/span&gt;&lt;span style=&quot;color: #d4d4d4;&quot;&gt;(...&lt;/span&gt;&lt;span style=&quot;color: #9cdcfe;&quot;&gt;args&lt;/span&gt;&lt;span style=&quot;color: #d4d4d4;&quot;&gt;))&lt;/span&gt;&lt;/div&gt;&lt;div&gt;&lt;span style=&quot;color: #d4d4d4;&quot;&gt;))(store.dispatch)&lt;/span&gt;&lt;/div&gt;&lt;/div&gt;&lt;/div&gt;&lt;/h4&gt;" style="rounded=1;whiteSpace=wrap;html=1;fillColor=#000000;gradientColor=none;labelBackgroundColor=#000000;align=left;spacingLeft=26;" vertex="1" parent="1">
          <mxGeometry x="973" y="2215" width="297" height="160" as="geometry" />
        </mxCell>
        <mxCell id="XYzWHzTVNK9J-gLb8ux9-84" style="edgeStyle=orthogonalEdgeStyle;rounded=0;orthogonalLoop=1;jettySize=auto;html=1;exitX=1;exitY=0.5;exitDx=0;exitDy=0;entryX=1;entryY=0.5;entryDx=0;entryDy=0;strokeColor=#FF6392;fontColor=#5AA9E6;fillColor=#FFE45E;strokeWidth=16;" edge="1" parent="1" source="XYzWHzTVNK9J-gLb8ux9-40" target="XYzWHzTVNK9J-gLb8ux9-14">
          <mxGeometry relative="1" as="geometry">
            <Array as="points">
              <mxPoint x="2860" y="995" />
              <mxPoint x="2860" y="2005" />
            </Array>
          </mxGeometry>
        </mxCell>
        <mxCell id="XYzWHzTVNK9J-gLb8ux9-40" value="&lt;div&gt;&lt;font face=&quot;Menlo, Monaco, Courier New, monospace&quot; color=&quot;#007fff&quot;&gt;&lt;span style=&quot;font-size: 16px; white-space: pre;&quot;&gt;&lt;div&gt;&lt;br&gt;&lt;/div&gt;&lt;ul&gt;&lt;li&gt;&lt;span style=&quot;background-color: initial;&quot;&gt;applyMiddileware()里无中间件&lt;/span&gt;&lt;/li&gt;&lt;/ul&gt;&lt;div&gt;&lt;br&gt;&lt;/div&gt;&lt;div&gt;&lt;br&gt;&lt;/div&gt;&lt;div&gt;&lt;br&gt;&lt;/div&gt;&lt;ul&gt;&lt;li&gt;&lt;span style=&quot;background-color: initial;&quot;&gt;一个中间件&lt;/span&gt;&lt;/li&gt;&lt;/ul&gt;&lt;div&gt;&lt;br&gt;&lt;/div&gt;&lt;div&gt;&lt;br&gt;&lt;/div&gt;&lt;div&gt;&lt;br&gt;&lt;/div&gt;&lt;div&gt;&lt;br&gt;&lt;/div&gt;&lt;div&gt;&lt;br&gt;&lt;/div&gt;&lt;div&gt;&lt;br&gt;&lt;/div&gt;&lt;div&gt;&lt;br&gt;&lt;/div&gt;&lt;div&gt;&lt;br&gt;&lt;/div&gt;&lt;div&gt;&lt;br&gt;&lt;/div&gt;&lt;div&gt;&lt;br&gt;&lt;/div&gt;&lt;div&gt;&lt;br&gt;&lt;/div&gt;&lt;div&gt;&lt;br&gt;&lt;/div&gt;&lt;div&gt;&lt;br&gt;&lt;/div&gt;&lt;div&gt;&lt;br&gt;&lt;/div&gt;&lt;ul&gt;&lt;li&gt;两个中间件以上&lt;/li&gt;&lt;/ul&gt;&lt;/span&gt;&lt;/font&gt;&lt;span style=&quot;background-color: initial; color: rgb(0, 127, 255); font-family: Menlo, Monaco, &amp;quot;Courier New&amp;quot;, monospace; font-size: 16px; white-space: pre;&quot;&gt;&lt;span style=&quot;white-space: pre;&quot;&gt;&#x9;&lt;/span&gt;&lt;/span&gt;&lt;/div&gt;&lt;div&gt;&lt;br&gt;&lt;/div&gt;&lt;div&gt;&lt;br&gt;&lt;/div&gt;&lt;div&gt;&lt;br&gt;&lt;/div&gt;&lt;div&gt;&lt;br&gt;&lt;/div&gt;&lt;div&gt;&lt;br&gt;&lt;/div&gt;&lt;div&gt;&lt;br&gt;&lt;/div&gt;&lt;div&gt;&lt;br&gt;&lt;/div&gt;" style="rounded=1;whiteSpace=wrap;html=1;align=left;fillColor=#CC0000;gradientColor=default;labelBackgroundColor=none;labelBorderColor=none;spacingTop=0;gradientDirection=north;spacingBottom=300;" vertex="1" parent="1">
          <mxGeometry x="2210" y="460" width="500" height="1070" as="geometry" />
        </mxCell>
        <mxCell id="XYzWHzTVNK9J-gLb8ux9-41" value="&lt;span style=&quot;font-size: 33px;&quot;&gt;chain&lt;/span&gt;" style="rounded=1;whiteSpace=wrap;html=1;labelBorderColor=none;labelBackgroundColor=none;fillColor=#6666FF;strokeColor=#d6b656;" vertex="1" parent="1">
          <mxGeometry x="2260" y="470" width="400" height="85" as="geometry" />
        </mxCell>
        <mxCell id="XYzWHzTVNK9J-gLb8ux9-42" value="&lt;div style=&quot;font-family: Menlo, Monaco, &amp;quot;Courier New&amp;quot;, monospace; font-size: 16px; line-height: 24px; white-space: pre;&quot;&gt;&lt;font color=&quot;#569cd6&quot;&gt;[]&lt;/font&gt;&lt;/div&gt;" style="rounded=0;whiteSpace=wrap;html=1;fillColor=#000000;gradientColor=none;labelBackgroundColor=none;align=left;spacingLeft=14;" vertex="1" parent="1">
          <mxGeometry x="2245" y="620" width="310" height="30" as="geometry" />
        </mxCell>
        <mxCell id="XYzWHzTVNK9J-gLb8ux9-43" value="&lt;div style=&quot;color: rgb(204, 204, 204); font-family: Menlo, Monaco, &amp;quot;Courier New&amp;quot;, monospace; font-size: 16px; line-height: 24px; white-space: pre;&quot;&gt;&lt;div style=&quot;line-height: 24px;&quot;&gt;&lt;h4 style=&quot;color: rgb(0, 0, 0); text-wrap: wrap; overflow-wrap: break-word; margin: 16px 0px 8px; padding: 0px; font-size: 14px; box-sizing: border-box; list-style: inherit; line-height: 24px; font-family: &amp;quot;pingfang SC&amp;quot;, &amp;quot;helvetica neue&amp;quot;, arial, &amp;quot;hiragino sans gb&amp;quot;, &amp;quot;microsoft yahei ui&amp;quot;, &amp;quot;microsoft yahei&amp;quot;, simsun, sans-serif;&quot; name=&quot;compose&quot; id=&quot;93c0k&quot;&gt;&lt;div style=&quot;font-family: Menlo, Monaco, &amp;quot;Courier New&amp;quot;, monospace; font-size: 16px; text-wrap: nowrap; font-weight: 400; color: rgb(204, 204, 204); display: inline !important;&quot;&gt;&lt;span style=&quot;color: rgb(212, 212, 212);&quot;&gt;[&lt;/span&gt;&lt;/div&gt;&lt;div style=&quot;font-family: Menlo, Monaco, &amp;quot;Courier New&amp;quot;, monospace; font-size: 16px; text-wrap: nowrap; font-weight: 400;&quot;&gt;&lt;span style=&quot;color: rgb(212, 212, 212);&quot;&gt;  &lt;/span&gt;&lt;span style=&quot;color: rgb(86, 156, 214);&quot;&gt;function&lt;/span&gt;&lt;span style=&quot;color: rgb(212, 212, 212);&quot;&gt; &lt;/span&gt;&lt;font color=&quot;#dcdcaa&quot;&gt;thunk1&lt;/font&gt;&lt;span style=&quot;color: rgb(212, 212, 212);&quot;&gt;(&lt;/span&gt;&lt;span style=&quot;color: rgb(156, 220, 254);&quot;&gt;next&lt;/span&gt;&lt;span style=&quot;color: rgb(212, 212, 212);&quot;&gt;) {&lt;/span&gt;&lt;/div&gt;&lt;div style=&quot;font-family: Menlo, Monaco, &amp;quot;Courier New&amp;quot;, monospace; font-size: 16px; text-wrap: nowrap; font-weight: 400; color: rgb(204, 204, 204);&quot;&gt;&lt;span style=&quot;color: rgb(212, 212, 212);&quot;&gt;    &lt;/span&gt;&lt;span style=&quot;color: rgb(197, 134, 192);&quot;&gt;return&lt;/span&gt;&lt;span style=&quot;color: rgb(212, 212, 212);&quot;&gt; &lt;/span&gt;&lt;span style=&quot;color: rgb(86, 156, 214);&quot;&gt;function&lt;/span&gt;&lt;span style=&quot;color: rgb(212, 212, 212);&quot;&gt; (&lt;/span&gt;&lt;span style=&quot;color: rgb(156, 220, 254);&quot;&gt;action&lt;/span&gt;&lt;span style=&quot;color: rgb(212, 212, 212);&quot;&gt;) {&lt;/span&gt;&lt;/div&gt;&lt;div style=&quot;font-family: Menlo, Monaco, &amp;quot;Courier New&amp;quot;, monospace; font-size: 16px; text-wrap: nowrap; font-weight: 400; color: rgb(204, 204, 204);&quot;&gt;&lt;span style=&quot;color: rgb(212, 212, 212);&quot;&gt;      &lt;/span&gt;&lt;span style=&quot;color: rgb(197, 134, 192);&quot;&gt;return&lt;/span&gt;&lt;span style=&quot;color: rgb(212, 212, 212);&quot;&gt; &lt;/span&gt;&lt;span style=&quot;color: rgb(220, 220, 170);&quot;&gt;next&lt;/span&gt;&lt;span style=&quot;color: rgb(212, 212, 212);&quot;&gt;(&lt;/span&gt;&lt;span style=&quot;color: rgb(156, 220, 254);&quot;&gt;action&lt;/span&gt;&lt;span style=&quot;color: rgb(212, 212, 212);&quot;&gt;);&lt;/span&gt;&lt;/div&gt;&lt;div style=&quot;font-family: Menlo, Monaco, &amp;quot;Courier New&amp;quot;, monospace; font-size: 16px; text-wrap: nowrap; font-weight: 400; color: rgb(204, 204, 204);&quot;&gt;&lt;span style=&quot;color: rgb(212, 212, 212);&quot;&gt;    };&lt;/span&gt;&lt;/div&gt;&lt;div style=&quot;font-family: Menlo, Monaco, &amp;quot;Courier New&amp;quot;, monospace; font-size: 16px; text-wrap: nowrap; font-weight: 400; color: rgb(204, 204, 204);&quot;&gt;&lt;span style=&quot;color: rgb(212, 212, 212);&quot;&gt;  },&lt;/span&gt;&lt;/div&gt;&lt;div style=&quot;font-family: Menlo, Monaco, &amp;quot;Courier New&amp;quot;, monospace; font-size: 16px; text-wrap: nowrap; font-weight: 400; color: rgb(204, 204, 204);&quot;&gt;&lt;span style=&quot;color: rgb(212, 212, 212);&quot;&gt;];&lt;/span&gt;&lt;/div&gt;&lt;/h4&gt;&lt;/div&gt;&lt;/div&gt;" style="rounded=0;whiteSpace=wrap;html=1;fillColor=#000000;gradientColor=none;labelBackgroundColor=#000000;align=left;spacingLeft=14;" vertex="1" parent="1">
          <mxGeometry x="2235" y="720" width="450" height="215" as="geometry" />
        </mxCell>
        <mxCell id="XYzWHzTVNK9J-gLb8ux9-47" value="&lt;div style=&quot;color: rgb(204, 204, 204); font-family: Menlo, Monaco, &amp;quot;Courier New&amp;quot;, monospace; font-size: 16px; line-height: 24px; white-space: pre;&quot;&gt;&lt;div style=&quot;line-height: 24px;&quot;&gt;&lt;h4 style=&quot;color: rgb(0, 0, 0); text-wrap: wrap; overflow-wrap: break-word; margin: 16px 0px 8px; padding: 0px; font-size: 14px; box-sizing: border-box; list-style: inherit; line-height: 24px; font-family: &amp;quot;pingfang SC&amp;quot;, &amp;quot;helvetica neue&amp;quot;, arial, &amp;quot;hiragino sans gb&amp;quot;, &amp;quot;microsoft yahei ui&amp;quot;, &amp;quot;microsoft yahei&amp;quot;, simsun, sans-serif;&quot; name=&quot;compose&quot; id=&quot;93c0k&quot;&gt;&lt;div style=&quot;font-family: Menlo, Monaco, &amp;quot;Courier New&amp;quot;, monospace; font-size: 16px; text-wrap: nowrap; font-weight: 400; color: rgb(204, 204, 204); display: inline !important;&quot;&gt;&lt;span style=&quot;color: rgb(212, 212, 212);&quot;&gt;[&lt;/span&gt;&lt;/div&gt;&lt;div style=&quot;font-family: Menlo, Monaco, &amp;quot;Courier New&amp;quot;, monospace; font-size: 16px; text-wrap: nowrap; font-weight: 400;&quot;&gt;&lt;span style=&quot;color: rgb(212, 212, 212);&quot;&gt;  &lt;/span&gt;&lt;span style=&quot;color: rgb(86, 156, 214);&quot;&gt;function&lt;/span&gt;&lt;span style=&quot;color: rgb(212, 212, 212);&quot;&gt; &lt;/span&gt;&lt;font color=&quot;#dcdcaa&quot;&gt;thunk1&lt;/font&gt;&lt;span style=&quot;color: rgb(212, 212, 212);&quot;&gt;(&lt;/span&gt;&lt;span style=&quot;color: rgb(156, 220, 254);&quot;&gt;next&lt;/span&gt;&lt;span style=&quot;color: rgb(212, 212, 212);&quot;&gt;) {&lt;/span&gt;&lt;/div&gt;&lt;div style=&quot;font-family: Menlo, Monaco, &amp;quot;Courier New&amp;quot;, monospace; font-size: 16px; text-wrap: nowrap; font-weight: 400; color: rgb(204, 204, 204);&quot;&gt;&lt;span style=&quot;color: rgb(212, 212, 212);&quot;&gt;    &lt;/span&gt;&lt;span style=&quot;color: rgb(197, 134, 192);&quot;&gt;return&lt;/span&gt;&lt;span style=&quot;color: rgb(212, 212, 212);&quot;&gt; &lt;/span&gt;&lt;span style=&quot;color: rgb(86, 156, 214);&quot;&gt;function&lt;/span&gt;&lt;span style=&quot;color: rgb(212, 212, 212);&quot;&gt; (&lt;/span&gt;&lt;span style=&quot;color: rgb(156, 220, 254);&quot;&gt;action&lt;/span&gt;&lt;span style=&quot;color: rgb(212, 212, 212);&quot;&gt;) {&lt;/span&gt;&lt;/div&gt;&lt;div style=&quot;font-family: Menlo, Monaco, &amp;quot;Courier New&amp;quot;, monospace; font-size: 16px; text-wrap: nowrap; font-weight: 400; color: rgb(204, 204, 204);&quot;&gt;&lt;span style=&quot;color: rgb(212, 212, 212);&quot;&gt;      &lt;/span&gt;&lt;span style=&quot;color: rgb(197, 134, 192);&quot;&gt;return&lt;/span&gt;&lt;span style=&quot;color: rgb(212, 212, 212);&quot;&gt; &lt;/span&gt;&lt;span style=&quot;color: rgb(220, 220, 170);&quot;&gt;next&lt;/span&gt;&lt;span style=&quot;color: rgb(212, 212, 212);&quot;&gt;(&lt;/span&gt;&lt;span style=&quot;color: rgb(156, 220, 254);&quot;&gt;action&lt;/span&gt;&lt;span style=&quot;color: rgb(212, 212, 212);&quot;&gt;);&lt;/span&gt;&lt;/div&gt;&lt;div style=&quot;font-family: Menlo, Monaco, &amp;quot;Courier New&amp;quot;, monospace; font-size: 16px; text-wrap: nowrap; font-weight: 400; color: rgb(204, 204, 204);&quot;&gt;&lt;span style=&quot;color: rgb(212, 212, 212);&quot;&gt;    };&lt;/span&gt;&lt;/div&gt;&lt;div style=&quot;font-family: Menlo, Monaco, &amp;quot;Courier New&amp;quot;, monospace; font-size: 16px; text-wrap: nowrap; font-weight: 400; color: rgb(204, 204, 204);&quot;&gt;&lt;span style=&quot;color: rgb(212, 212, 212);&quot;&gt;  },&lt;/span&gt;&lt;/div&gt;&lt;/h4&gt;&lt;h4 style=&quot;text-wrap: wrap; color: rgb(0, 0, 0); overflow-wrap: break-word; margin: 16px 0px 8px; padding: 0px; font-size: 14px; box-sizing: border-box; list-style: inherit; line-height: 24px; font-family: &amp;quot;pingfang SC&amp;quot;, &amp;quot;helvetica neue&amp;quot;, arial, &amp;quot;hiragino sans gb&amp;quot;, &amp;quot;microsoft yahei ui&amp;quot;, &amp;quot;microsoft yahei&amp;quot;, simsun, sans-serif;&quot; name=&quot;compose&quot; id=&quot;93c0k&quot;&gt;&lt;div style=&quot;font-family: Menlo, Monaco, &amp;quot;Courier New&amp;quot;, monospace; font-size: 16px; text-wrap: nowrap; font-weight: 400;&quot;&gt;&lt;span style=&quot;color: rgb(212, 212, 212);&quot;&gt;  &lt;/span&gt;&lt;span style=&quot;color: rgb(86, 156, 214);&quot;&gt;function&lt;/span&gt;&lt;span style=&quot;color: rgb(212, 212, 212);&quot;&gt; &lt;/span&gt;&lt;font color=&quot;#dcdcaa&quot;&gt;thunk2&lt;/font&gt;&lt;span style=&quot;color: rgb(212, 212, 212);&quot;&gt;(&lt;/span&gt;&lt;span style=&quot;color: rgb(156, 220, 254);&quot;&gt;next&lt;/span&gt;&lt;span style=&quot;color: rgb(212, 212, 212);&quot;&gt;) {&lt;/span&gt;&lt;/div&gt;&lt;div style=&quot;font-family: Menlo, Monaco, &amp;quot;Courier New&amp;quot;, monospace; font-size: 16px; text-wrap: nowrap; font-weight: 400; color: rgb(204, 204, 204);&quot;&gt;&lt;span style=&quot;color: rgb(212, 212, 212);&quot;&gt;    &lt;/span&gt;&lt;span style=&quot;color: rgb(197, 134, 192);&quot;&gt;return&lt;/span&gt;&lt;span style=&quot;color: rgb(212, 212, 212);&quot;&gt; &lt;/span&gt;&lt;span style=&quot;color: rgb(86, 156, 214);&quot;&gt;function&lt;/span&gt;&lt;span style=&quot;color: rgb(212, 212, 212);&quot;&gt; (&lt;/span&gt;&lt;span style=&quot;color: rgb(156, 220, 254);&quot;&gt;action&lt;/span&gt;&lt;span style=&quot;color: rgb(212, 212, 212);&quot;&gt;) {&lt;/span&gt;&lt;/div&gt;&lt;div style=&quot;font-family: Menlo, Monaco, &amp;quot;Courier New&amp;quot;, monospace; font-size: 16px; text-wrap: nowrap; font-weight: 400; color: rgb(204, 204, 204);&quot;&gt;&lt;span style=&quot;color: rgb(212, 212, 212);&quot;&gt;      &lt;/span&gt;&lt;span style=&quot;color: rgb(197, 134, 192);&quot;&gt;return&lt;/span&gt;&lt;span style=&quot;color: rgb(212, 212, 212);&quot;&gt; &lt;/span&gt;&lt;span style=&quot;color: rgb(220, 220, 170);&quot;&gt;next&lt;/span&gt;&lt;span style=&quot;color: rgb(212, 212, 212);&quot;&gt;(&lt;/span&gt;&lt;span style=&quot;color: rgb(156, 220, 254);&quot;&gt;action&lt;/span&gt;&lt;span style=&quot;color: rgb(212, 212, 212);&quot;&gt;);&lt;/span&gt;&lt;/div&gt;&lt;div style=&quot;font-family: Menlo, Monaco, &amp;quot;Courier New&amp;quot;, monospace; font-size: 16px; text-wrap: nowrap; font-weight: 400; color: rgb(204, 204, 204);&quot;&gt;&lt;span style=&quot;color: rgb(212, 212, 212);&quot;&gt;    };&lt;/span&gt;&lt;/div&gt;&lt;div style=&quot;font-family: Menlo, Monaco, &amp;quot;Courier New&amp;quot;, monospace; font-size: 16px; text-wrap: nowrap; font-weight: 400; color: rgb(204, 204, 204);&quot;&gt;&lt;span style=&quot;color: rgb(212, 212, 212);&quot;&gt;  }&lt;/span&gt;&lt;/div&gt;&lt;div style=&quot;font-family: Menlo, Monaco, &amp;quot;Courier New&amp;quot;, monospace; font-size: 16px; text-wrap: nowrap; font-weight: 400; color: rgb(204, 204, 204);&quot;&gt;&lt;span style=&quot;color: rgb(212, 212, 212);&quot;&gt;];&lt;/span&gt;&lt;/div&gt;&lt;/h4&gt;&lt;/div&gt;&lt;/div&gt;" style="rounded=0;whiteSpace=wrap;html=1;fillColor=#000000;gradientColor=none;labelBackgroundColor=#000000;align=left;spacingLeft=14;" vertex="1" parent="1">
          <mxGeometry x="2235" y="1040" width="460" height="355" as="geometry" />
        </mxCell>
        <mxCell id="XYzWHzTVNK9J-gLb8ux9-60" value="" style="shape=step;perimeter=stepPerimeter;whiteSpace=wrap;html=1;fixedSize=1;align=left;fillColor=#000000;rounded=1;gradientColor=none;labelBackgroundColor=#000000;spacingLeft=14;" vertex="1" parent="1">
          <mxGeometry x="1360" y="1917.5" width="63" height="25" as="geometry" />
        </mxCell>
        <mxCell id="XYzWHzTVNK9J-gLb8ux9-66" value="&lt;div style=&quot;font-family: Menlo, Monaco, &amp;quot;Courier New&amp;quot;, monospace; font-size: 16px; line-height: 24px; white-space: pre; color: rgb(204, 204, 204);&quot;&gt;&lt;div style=&quot;line-height: 24px;&quot;&gt;&lt;div style=&quot;line-height: 24px;&quot;&gt;&lt;div style=&quot;line-height: 24px;&quot;&gt;&lt;pre style=&quot;color: rgb(0, 204, 0); background-image: initial; background-position: initial; background-size: initial; background-repeat: initial; background-attachment: initial; background-origin: initial; background-clip: initial; font-family: Menlo, Monaco, Consolas, &amp;quot;Courier New&amp;quot;, monospace; direction: ltr; word-break: normal; line-height: 1.75; tab-size: 2; hyphens: none; overflow: auto; border-radius: 4px; margin-block: 12px; margin-inline: 0px; padding-block: 12px; padding-inline: 16px; overflow-wrap: normal; font-size: 14px; padding: 18px 24px; margin: 16px; position: relative; box-shadow: rgba(110, 110, 110, 0.45) 0px 0px 8px; letter-spacing: 0.32px;&quot; class=&quot;prism-code language-js&quot;&gt;&lt;div style=&quot;background-image: initial; background-position: initial; background-size: initial; background-repeat: initial; background-attachment: initial; background-origin: initial; background-clip: initial;&quot; class=&quot;&quot;&gt;&lt;div class=&quot;&quot;&gt;&lt;span class=&quot;token plain&quot;&gt;  &lt;/span&gt;&lt;span style=&quot;font-style: italic;&quot; class=&quot;token comment&quot;&gt;// 想一下store里源码dispatch的定义，&lt;/span&gt;&lt;/div&gt;&lt;div class=&quot;&quot;&gt;&lt;span style=&quot;font-style: italic;&quot; class=&quot;token comment&quot;&gt;  // 返回的依然是传入的action&lt;/span&gt;&lt;span class=&quot;token plain&quot;&gt;&lt;/span&gt;&lt;/div&gt;&lt;/div&gt;&lt;div style=&quot;background-image: initial; background-position: initial; background-size: initial; background-repeat: initial; background-attachment: initial; background-origin: initial; background-clip: initial;&quot; class=&quot;&quot;&gt;&lt;div class=&quot;&quot;&gt;&lt;span class=&quot;token plain&quot;&gt;  &lt;/span&gt;&lt;span style=&quot;font-style: italic;&quot; class=&quot;token comment&quot;&gt;// function dispatch(action) {&lt;/span&gt;&lt;span class=&quot;token plain&quot;&gt;&lt;/span&gt;&lt;/div&gt;&lt;/div&gt;&lt;div style=&quot;background-image: initial; background-position: initial; background-size: initial; background-repeat: initial; background-attachment: initial; background-origin: initial; background-clip: initial;&quot; class=&quot;&quot;&gt;&lt;div class=&quot;&quot;&gt;&lt;span class=&quot;token plain&quot;&gt;  &lt;/span&gt;&lt;span style=&quot;font-style: italic;&quot; class=&quot;token comment&quot;&gt;//     ...&lt;/span&gt;&lt;span class=&quot;token plain&quot;&gt;&lt;/span&gt;&lt;/div&gt;&lt;/div&gt;&lt;div style=&quot;background-image: initial; background-position: initial; background-size: initial; background-repeat: initial; background-attachment: initial; background-origin: initial; background-clip: initial;&quot; class=&quot;&quot;&gt;&lt;div class=&quot;&quot;&gt;&lt;span class=&quot;token plain&quot;&gt;  &lt;/span&gt;&lt;span style=&quot;font-style: italic;&quot; class=&quot;token comment&quot;&gt;//     return action&lt;/span&gt;&lt;span class=&quot;token plain&quot;&gt;&lt;/span&gt;&lt;/div&gt;&lt;/div&gt;&lt;div style=&quot;background-image: initial; background-position: initial; background-size: initial; background-repeat: initial; background-attachment: initial; background-origin: initial; background-clip: initial;&quot; class=&quot;&quot;&gt;&lt;div class=&quot;&quot;&gt;&lt;span class=&quot;token plain&quot;&gt;  &lt;/span&gt;&lt;span style=&quot;font-style: italic;&quot; class=&quot;token comment&quot;&gt;// }&lt;/span&gt;&lt;/div&gt;&lt;/div&gt;&lt;/pre&gt;&lt;/div&gt;&lt;/div&gt;&lt;/div&gt;&lt;/div&gt;" style="rounded=1;whiteSpace=wrap;html=1;fillColor=none;gradientColor=none;labelBackgroundColor=#000000;align=left;spacingLeft=14;verticalAlign=middle;textShadow=0;labelBorderColor=none;strokeColor=none;" vertex="1" parent="1">
          <mxGeometry x="1290" y="1645" width="420" height="180" as="geometry" />
        </mxCell>
        <mxCell id="XYzWHzTVNK9J-gLb8ux9-67" value="&lt;div style=&quot;font-family: Menlo, Monaco, &amp;quot;Courier New&amp;quot;, monospace; font-size: 16px; line-height: 24px; white-space: pre;&quot;&gt;&lt;div style=&quot;line-height: 24px;&quot;&gt;&lt;div style=&quot;line-height: 24px;&quot;&gt;&lt;div style=&quot;line-height: 24px;&quot;&gt;&lt;span style=&quot;background-color: rgb(0, 0, 0); color: rgb(220, 220, 170);&quot;&gt;返回是appleMiddleware重定义的store的dispatch&lt;/span&gt;&lt;span style=&quot;background-color: rgb(0, 0, 0); color: rgb(212, 212, 212);&quot;&gt;方法&lt;/span&gt;&lt;br&gt;&lt;/div&gt;&lt;/div&gt;&lt;/div&gt;&lt;/div&gt;" style="rounded=1;whiteSpace=wrap;html=1;fillColor=#000000;gradientColor=none;labelBackgroundColor=none;align=left;spacingLeft=14;" vertex="1" parent="1">
          <mxGeometry x="1507.5" y="1900" width="565" height="60" as="geometry" />
        </mxCell>
        <mxCell id="XYzWHzTVNK9J-gLb8ux9-68" value="" style="shape=step;perimeter=stepPerimeter;whiteSpace=wrap;html=1;fixedSize=1;align=left;fillColor=#000000;rounded=1;gradientColor=none;labelBackgroundColor=#000000;spacingLeft=14;" vertex="1" parent="1">
          <mxGeometry x="1360" y="2095" width="63" height="25" as="geometry" />
        </mxCell>
        <mxCell id="XYzWHzTVNK9J-gLb8ux9-69" value="&lt;font style=&quot;font-size: 16px;&quot;&gt;这里最后一步return的next函数其实就是实参的store.dispatch的传入，然后next(action)调用其实就是执行dispatch方法返回action， 所以最外层的return的&lt;/font&gt;&lt;div&gt;&lt;font style=&quot;font-size: 16px;&quot;&gt;&amp;nbsp;function (action) {&amp;nbsp;&lt;/font&gt;&lt;/div&gt;&lt;div&gt;&lt;font style=&quot;font-size: 16px;&quot;&gt;&amp;nbsp; &amp;nbsp;return action&amp;nbsp;&lt;/font&gt;&lt;/div&gt;&lt;div&gt;&lt;span style=&quot;font-size: 16px; background-color: initial;&quot;&gt;}&lt;/span&gt;&lt;/div&gt;&lt;div&gt;&lt;span style=&quot;font-size: 16px; background-color: initial;&quot;&gt;还是dispatch的定义&lt;/span&gt;&lt;/div&gt;" style="rounded=1;whiteSpace=wrap;html=1;fillColor=#000000;gradientColor=none;labelBackgroundColor=none;align=left;spacingLeft=2;fontColor=#FFFFFF;" vertex="1" parent="1">
          <mxGeometry x="1512.5" y="2040" width="560" height="135" as="geometry" />
        </mxCell>
        <mxCell id="XYzWHzTVNK9J-gLb8ux9-70" value="&lt;font style=&quot;font-size: 16px;&quot;&gt;reduce函数返回的为一个回调函数（...args） =&amp;gt; a(b(...args)) 再通过store.dispatch实参进行传入，也就变成了a(b(action))这种action 的传递&lt;/font&gt;" style="rounded=1;fillColor=#000000;gradientColor=none;labelBackgroundColor=none;align=left;spacingLeft=2;fontColor=#FFFFFF;verticalAlign=top;whiteSpace=wrap;html=1;" vertex="1" parent="1">
          <mxGeometry x="1507.5" y="2260" width="560" height="70" as="geometry" />
        </mxCell>
        <mxCell id="XYzWHzTVNK9J-gLb8ux9-75" value="" style="shape=step;perimeter=stepPerimeter;whiteSpace=wrap;html=1;fixedSize=1;align=left;fillColor=#000000;rounded=1;gradientColor=none;labelBackgroundColor=#000000;spacingLeft=14;" vertex="1" parent="1">
          <mxGeometry x="1360" y="2282.5" width="63" height="25" as="geometry" />
        </mxCell>
      </root>
    </mxGraphModel>
  </diagram>
</mxfile>
